<svg xmlns="http://www.w3.org/2000/svg" aria-hidden="true" style="position:absolute;width:0;height:0;overflow:hidden">
  <defs>
    <symbol id="icon-arrow-left" viewBox="0 0 32 32">
      <path fill="#10507c" d="M16 0c7.953 0 14.4 6.447 14.4 14.4S23.953 28.8 16 28.8 1.6 22.353 1.6 14.4 8.047 0 16 0z" style="fill:var(--color1, #10507c)"/>
      <path fill="none" stroke="#e9c125" stroke-width=".8" d="M16 .4c7.732 0 14 6.268 14 14s-6.268 14-14 14-14-6.268-14-14S8.268.4 16 .4z" style="stroke:var(--color2, #e9c125)"/>
      <path fill="none" stroke="#fffdfd" stroke-linecap="round" stroke-linejoin="round" stroke-width=".8" d="m18.4 19.2-4.8-4.8 4.8-4.8" style="stroke:var(--color3, #fffdfd)"/>
    </symbol>
    <symbol id="icon-arrow-right" viewBox="0 0 32 32">
      <path fill="#10507c" d="M16 0c7.953 0 14.4 6.447 14.4 14.4S23.953 28.8 16 28.8 1.6 22.353 1.6 14.4 8.047 0 16 0z" style="fill:var(--color1, #10507c)"/>
      <path fill="none" stroke="#e9c125" stroke-width=".8" d="M16 .4c7.732 0 14 6.268 14 14s-6.268 14-14 14-14-6.268-14-14S8.268.4 16 .4z" style="stroke:var(--color2, #e9c125)"/>
      <path fill="none" stroke="#fffdfd" stroke-linecap="round" stroke-linejoin="round" stroke-width=".8" d="m13.6 19.2 4.8-4.8-4.8-4.8" style="stroke:var(--color3, #fffdfd)"/>
    </symbol>
    <symbol id="icon-close" viewBox="0 0 32 32">
      <path fill="none" stroke="#e9c125" stroke-width="1.333" d="M5.333.667h21.333a4.667 4.667 0 0 1 4.667 4.667v21.333a4.667 4.667 0 0 1-4.667 4.667H5.333a4.667 4.667 0 0 1-4.667-4.667V5.334A4.667 4.667 0 0 1 5.333.667z" style="stroke:var(--color2, #e9c125)"/>
      <path fill="none" stroke="#fffdfd" stroke-linecap="round" stroke-linejoin="round" stroke-width="1.333" d="m7 7 9 9m0 0-9 9m9-9 9 9m-9-9 9-9" style="stroke:var(--color3, #fffdfd)"/>
    </symbol>
    <symbol id="icon-mail" viewBox="0 0 32 32">
      <path fill="#e9c125" stroke="#000" stroke-miterlimit="10" d="M28.098 26.607c2.341-1.061 2.755-6.509 2.755-10.607s-.46-9.545-2.755-10.607c-1.155-1.061-7.337-1.35-12.488-1.35s-11.301.289-12.488 1.35C.827 6.454.39 11.902.39 16s.437 9.545 2.732 10.607c1.163 1.061 7.344 1.35 12.488 1.35s11.309-.25 12.488-1.35z" style="fill:var(--color2, #e9c125)"/>
      <path stroke-linecap="round" stroke-miterlimit="10" d="M3.646 10.537c2.849 2.974 6.978 6.189 8.25 6.743a8.437 8.437 0 0 0 7.43 0c1.264-.5 5.393-3.739 8.242-6.743m-16.305 6.548-5.432 5.44m14.127-5.44 5.44 5.44M22.674 6.268a12.044 12.044 0 0 1 4.113.718"/>
    </symbol>
    <symbol id="icon-menu" viewBox="0 0 32 32">
      <path fill="none" stroke="#e9c125" stroke-width="1.333" d="M5.333.667h21.333a4.667 4.667 0 0 1 4.667 4.667v21.333a4.667 4.667 0 0 1-4.667 4.667H5.333a4.667 4.667 0 0 1-4.667-4.667V5.334A4.667 4.667 0 0 1 5.333.667z" style="stroke:var(--color2, #e9c125)"/>
      <path fill="none" stroke="#fffdfd" stroke-linecap="round" stroke-width="1.333" d="M7.5 9.5h17m-17 12h17m-17-6h17" style="stroke:var(--color3, #fffdfd)"/>
    </symbol>
  </defs>
</svg>
